<?xml version="1.0" encoding="UTF-8" standalone="no"?>
<!-- Created with Inkscape (http://www.inkscape.org/) -->

<svg
   width="210mm"
   height="297mm"
   viewBox="0 0 210 297"
   version="1.1"
   id="svg1"
   xml:space="preserve"
   sodipodi:docname="logo.svg"
   inkscape:export-filename="lgog.svg"
   inkscape:export-xdpi="96"
   inkscape:export-ydpi="96"
   inkscape:version="1.3.2 (091e20e, 2023-11-25, custom)"
   xmlns:inkscape="http://www.inkscape.org/namespaces/inkscape"
   xmlns:sodipodi="http://sodipodi.sourceforge.net/DTD/sodipodi-0.dtd"
   xmlns="http://www.w3.org/2000/svg"
   xmlns:svg="http://www.w3.org/2000/svg"><sodipodi:namedview
     id="namedview1"
     pagecolor="#ffffff"
     bordercolor="#666666"
     borderopacity="1.0"
     inkscape:showpageshadow="2"
     inkscape:pageopacity="0.0"
     inkscape:pagecheckerboard="0"
     inkscape:deskcolor="#d1d1d1"
     inkscape:document-units="mm"
     inkscape:zoom="0.47496585"
     inkscape:cx="218.96311"
     inkscape:cy="682.15431"
     inkscape:window-width="1920"
     inkscape:window-height="1005"
     inkscape:window-x="-9"
     inkscape:window-y="-9"
     inkscape:window-maximized="1"
     inkscape:current-layer="layer2" /><defs
     id="defs1" /><g
     inkscape:groupmode="layer"
     id="layer2"
     inkscape:label="Layer 2"><path
       style="fill:#000000;stroke-width:0.841343"
       d="m 75.350671,194.06297 c -10.958936,-0.80277 -23.658322,-3.7098 -31.910795,-7.30475 -11.92276,-5.19379 -20.639553,-13.00479 -24.119279,-21.61295 -1.488225,-3.68157 -1.941964,-5.68761 -2.125293,-9.39617 -0.30171,-6.10327 0.573404,-10.25088 3.444968,-16.32748 2.864428,-6.06151 6.013477,-10.35007 11.584863,-15.77699 4.081433,-3.9756 6.767033,-6.20233 11.050038,-9.16198 14.588946,-10.08131 32.539992,-17.211958 52.660963,-20.918368 5.576294,-1.027192 16.722494,-2.38174 17.953304,-2.181787 0.34747,0.05645 -0.96461,0.278623 -2.91575,0.493721 -11.517866,1.269753 -24.94691,4.682646 -36.507086,9.278004 -5.288968,2.10245 -14.306263,6.73629 -19.062844,9.79608 -2.10939,1.35692 -4.171386,2.64244 -4.582213,2.85672 -0.789789,0.41194 -1.968734,1.43544 -7.239024,6.28464 -10.385301,9.55552 -15.634805,19.67792 -15.596584,30.07427 0.03945,10.72852 5.916478,19.90279 17.17831,26.81597 8.806142,5.40573 21.42815,9.22162 35.064263,10.60064 4.282687,0.4331 18.275917,0.43244 22.763258,-8.5e-4 15.09622,-1.45844 28.4929,-4.65035 41.38774,-9.86108 18.9214,-7.64604 34.38524,-19.53433 41.59448,-31.97704 1.40428,-2.42368 3.11755,-6.28479 3.65723,-8.24207 0.20337,-0.73753 0.38164,-1.13447 0.39618,-0.88209 0.0476,0.82569 -0.85003,3.88008 -2.04748,6.96725 -2.68148,6.91324 -8.30099,14.60245 -14.95473,20.46266 -12.46648,10.97971 -28.91742,19.45646 -47.12235,24.28095 -10.24412,2.71481 -11.74759,3.06969 -16.25947,3.83798 -11.861093,2.0197 -23.676626,2.67261 -34.292699,1.89496 z m 10.811491,-10.24522 c -0.480975,-0.48483 -0.621176,-2.10012 -0.235348,-2.71152 0.342901,-0.54337 1.633165,-0.75869 2.516878,-0.42001 0.684962,0.2625 0.801435,0.47835 0.801435,1.4852 0,1.3987 -0.60051,2.11461 -1.773761,2.11461 -0.464556,0 -1.053698,-0.21073 -1.309204,-0.46828 z m 2.435791,-1.39657 c 0.102829,-1.25312 -0.325975,-1.60543 -1.570688,-1.29054 -0.601648,0.15222 -0.738405,0.36974 -0.738405,1.17444 0,1.23706 0.19759,1.43538 1.319695,1.32458 0.805304,-0.0795 0.906945,-0.20366 0.989398,-1.20848 z m 4.769429,1.31529 c -0.922794,-0.7532 -0.956682,-3.07178 -0.05816,-3.97752 0.881053,-0.88811 2.944596,-0.86028 3.675497,0.0496 0.753451,0.93792 0.723778,3.0982 -0.0533,3.88152 -0.766373,0.77251 -2.644509,0.79698 -3.564035,0.0465 z m 3.258015,-0.62282 c 0.461678,-0.86956 0.36752,-2.4371 -0.183236,-3.05055 -0.494285,-0.55055 -1.749981,-0.71997 -2.348847,-0.31689 -0.996504,0.67071 -1.183914,2.56146 -0.353819,3.56967 0.505002,0.61336 2.528144,0.47159 2.885902,-0.20223 z m 2.269153,-0.66468 c -0.191189,-1.84382 -0.05899,-2.49056 0.367001,-1.79575 0.179708,0.2931 0.413367,0.27572 1.092529,-0.0813 1.05192,-0.55294 1.44158,-0.57117 1.82309,-0.0853 0.42367,0.53954 0.75486,3.50141 0.39152,3.50141 -0.16259,0 -0.38536,-0.68191 -0.49504,-1.51534 -0.2253,-1.71196 -0.66825,-2.05252 -1.7448,-1.34149 -0.603694,0.39873 -0.736793,0.72762 -0.736793,1.82072 0,1.9661 -0.477164,1.62203 -0.697507,-0.50296 z M 81.974993,181.915 c -0.79797,-1.14017 -1.550629,-2.07885 -1.672574,-2.08595 -0.121946,-0.007 -0.223537,0.557 -0.225757,1.25355 -0.0049,1.53872 -0.265213,2.60744 -0.635092,2.60744 -0.150999,0 -0.207592,-0.43582 -0.125763,-0.96848 0.08183,-0.53266 0.234272,-1.77027 0.338761,-2.75023 l 0.189981,-1.78176 0.783235,0.90686 c 0.430779,0.49878 1.248846,1.56876 1.817928,2.37775 l 1.034694,1.47088 0.08741,-2.01144 c 0.110056,-2.53249 0.653052,-2.65741 0.647615,-0.149 -0.0043,1.98147 -0.223654,3.20341 -0.575068,3.20341 -0.117987,0 -0.867405,-0.93286 -1.665374,-2.07303 z m 22.516027,1.30676 c -0.26551,-0.26763 -0.46456,-0.9726 -0.46456,-1.64534 0,-0.95682 0.13422,-1.23871 0.71727,-1.5065 0.93986,-0.43165 2.15136,-0.10761 2.3862,0.63823 0.2818,0.89498 -0.0609,1.19393 -1.36883,1.19393 -0.97303,0 -1.16788,0.0939 -1.08202,0.52149 0.0809,0.40285 0.38846,0.51564 1.35199,0.49577 1.34377,-0.0277 1.66218,0.29112 0.58213,0.58288 -1.07571,0.29058 -1.62809,0.21759 -2.12218,-0.28046 z m 2.19156,-1.84116 c -0.0209,-1.03067 -1.82062,-1.29754 -2.00961,-0.298 -0.079,0.41791 0.11122,0.5215 0.95776,0.5215 0.58101,0 1.05434,-0.10058 1.05185,-0.2235 z m 5.40231,1.18486 c -0.36441,-0.0595 -0.86328,-0.39701 -1.1086,-0.75006 -0.54055,-0.77792 -0.58604,-2.89453 -0.0765,-3.55979 0.50755,-0.66266 2.85477,-1.2684 3.27472,-0.8451 0.22577,0.22758 0.0816,0.31968 -0.50049,0.31968 -0.87498,0 -1.97151,0.47755 -2.32627,1.01309 -0.26899,0.40608 -0.29022,1.75003 -0.0381,2.41228 0.24771,0.65067 1.44473,1.09152 2.34521,0.8637 0.58732,-0.14858 0.71855,-0.36958 0.71855,-1.21004 0,-0.60962 0.12036,-0.95327 0.29563,-0.84408 0.1626,0.10129 0.29563,0.64304 0.29563,1.20388 0,1.04599 0.0243,1.02778 -1.92158,1.44172 -0.16259,0.0346 -0.59377,0.0142 -0.95818,-0.0453 z m 4.9355,-1.06433 c -1.54262,-0.7819 -1.27293,-3.21251 0.39204,-3.53334 1.60485,-0.30925 2.59275,0.85875 2.16827,2.56355 -0.23127,0.92881 -1.61048,1.45122 -2.56031,0.96979 z m 1.51122,-0.5035 c 1.03901,-0.56051 0.43966,-2.67145 -0.7585,-2.67145 -0.49724,0 -1.33032,0.81156 -1.33032,1.29594 0,0.49987 0.85695,1.68398 1.21871,1.68398 0.16406,0 0.55561,-0.13881 0.87011,-0.30847 z m 2.93683,-0.88349 c -0.79063,-0.79696 -0.80209,-2.54723 -0.0194,-2.96944 0.93155,-0.50254 2.03718,-0.36656 2.38771,0.29366 0.37714,0.71032 0.15973,1.18762 -0.53806,1.18125 -0.42801,-0.004 -0.43648,-0.0449 -0.0589,-0.28558 0.62043,-0.39539 -0.0157,-0.98214 -0.92422,-0.85256 -0.45252,0.0645 -0.73152,0.32811 -0.7907,0.74694 -0.0754,0.53363 0.0284,0.62366 0.59126,0.51308 l 0.68269,-0.13413 -0.69891,0.30938 c -0.59436,0.2631 -0.64127,0.37937 -0.3136,0.77735 0.37109,0.45071 1.02385,0.4444 2.12111,-0.0205 0.2946,-0.12482 0.51735,-0.0897 0.51735,0.0815 0,0.27355 -1.50812,0.955 -2.11351,0.955 -0.13832,0 -0.51757,-0.26819 -0.84276,-0.59598 z m 4.02025,-0.5168 c -0.11346,-0.11437 0.29808,-0.35059 0.91455,-0.52494 0.65796,-0.18608 1.16129,-0.52869 1.21878,-0.8296 0.0811,-0.42448 -0.1345,-0.51261 -1.25406,-0.51261 -1.24858,0 -1.352,-0.0575 -1.352,-0.75235 0,-0.82695 1.09185,-1.44887 2.19783,-1.25186 0.50464,0.0899 0.45669,0.15109 -0.27625,0.3526 -2.01863,0.55499 -2.00833,1.35363 0.0174,1.35363 1.19831,0 1.31287,0.0641 1.31287,0.73449 0,0.40397 -0.23281,0.85476 -0.51735,1.00175 -0.82336,0.42534 -2.03703,0.65548 -2.26182,0.42889 z m 5.42751,-3.7296 c -0.95537,-2.86701 -0.96363,-2.90542 -0.62412,-2.90542 0.1616,0 0.38113,0.40075 0.48786,0.89056 0.10672,0.48981 0.29543,0.95372 0.41934,1.03092 0.12391,0.0772 0.92006,-0.0836 1.76922,-0.35733 1.33076,-0.42896 1.5177,-0.58157 1.35403,-1.10541 -0.89654,-2.86949 -0.19271,-2.416 0.85138,0.54857 0.85918,2.43954 0.88651,2.56859 0.544,2.56859 -0.12993,0 -0.40662,-0.47496 -0.61488,-1.05548 -0.40948,-1.14148 -0.48084,-1.14822 -2.65493,-0.25133 -1.01747,0.41976 -1.07224,0.69954 -0.45454,2.3221 0.0994,0.26108 0.0597,0.47468 -0.0884,0.47468 -0.14798,0 -0.59303,-0.9722 -0.98899,-2.16045 z m 5.88821,-1.57849 c -0.32704,-0.74525 -0.53516,-1.5163 -0.46248,-1.71345 0.0727,-0.19715 0.40952,0.2785 0.74855,1.057 0.67302,1.54544 1.19484,1.74757 2.11557,0.81948 0.70913,-0.71481 0.7159,-0.81844 0.14384,-2.19854 -0.27573,-0.6652 -0.32842,-1.07937 -0.13731,-1.07937 0.17056,0 0.57144,0.61455 0.89085,1.36567 0.64968,1.52776 0.78068,2.53097 0.26228,2.00841 -0.22754,-0.22936 -0.51912,-0.11875 -1.02126,0.38739 -1.10782,1.11668 -1.84905,0.92799 -2.54004,-0.64659 z m 4.62099,-1.97705 c -0.39035,-0.84927 -0.63366,-1.66816 -0.5407,-1.81977 0.093,-0.15162 0.2774,-0.0989 0.40987,0.11716 0.18231,0.29735 0.3941,0.19644 0.87138,-0.41517 1.00584,-1.28896 1.97423,-1.0923 2.69362,0.547 0.81242,1.85131 0.51027,2.41797 -0.35003,0.65645 -0.75926,-1.55465 -1.34873,-1.767 -2.21785,-0.79895 -0.52225,0.58169 -0.5269,0.6911 -0.0825,1.93695 0.65083,1.82435 0.0831,1.66232 -0.78383,-0.22367 z m 5.46694,-0.0625 c 0,-0.4275 0.007,-0.85312 0.0153,-0.94581 0.008,-0.0927 -0.33155,-0.44349 -0.75539,-0.77955 -1.18332,-0.93825 -0.91202,-1.97244 0.74015,-2.82143 1.53144,-0.78693 1.89586,-0.85493 1.69047,-0.3154 -0.0806,0.21173 0.033,0.63255 0.25254,0.93514 0.4991,0.68802 0.13809,1.46074 -0.98965,2.11833 -0.78779,0.45936 -0.78926,0.46536 -0.0665,0.27251 0.40648,-0.10845 1.18275,-0.26627 1.72504,-0.35069 0.89701,-0.13963 0.97703,-0.0911 0.88688,0.53747 -0.10401,0.72523 -1.29587,1.57933 -2.68583,1.92471 -0.73031,0.18146 -0.81297,0.12298 -0.81297,-0.57528 z m 2.18703,-0.22167 c 0.94626,-0.43459 1.24402,-1.1516 0.47824,-1.1516 -0.79713,0 -2.012,0.59924 -2.19629,1.08333 -0.19192,0.50416 0.69247,0.5393 1.71805,0.0683 z m -1.01803,-2.17817 c 0.19499,-0.23682 0.31105,-0.73968 0.25792,-1.11747 -0.17715,-1.25962 -2.3138,-0.95214 -2.3138,0.33298 0,1.09616 1.36913,1.6186 2.05588,0.78449 z m -51.551419,-0.0662 c -0.104029,-0.27324 -0.085,-0.59562 0.04232,-0.71638 0.319612,-0.30326 35.751229,-7.40013 38.611129,-7.73372 1.38346,-0.16137 2.69507,-0.50768 3.26315,-0.86159 1.10616,-0.6891 2.10837,-2.34856 2.51199,-4.15934 0.3188,-1.4302 0.22968,-1.42845 -0.53068,0.0104 -0.64954,1.22916 -1.66728,1.80573 -2.81348,1.5939 -1.24665,-0.23041 -2.13436,-1.19707 -2.83655,-3.08885 -0.61644,-1.66077 -1.5244,-6.8553 -1.27065,-7.2695 0.0753,-0.12292 0.50128,-0.2235 0.94661,-0.2235 0.7978,0 0.81464,0.0395 1.14635,2.68844 0.72629,5.80006 3.15774,8.27791 4.87026,4.9632 0.5523,-1.06902 0.64553,-1.74978 0.66021,-4.82071 l 0.0171,-3.5759 0.77287,-0.0904 c 0.6593,-0.0771 0.80048,0.0488 0.96079,0.85673 0.10336,0.52091 0.18792,2.52539 0.18792,4.45438 0,7.37711 -2.0251,10.24106 -7.68629,10.87012 -0.89428,0.0994 -9.90818,1.84993 -20.03092,3.8901 -10.12274,2.04019 -18.456257,3.70943 -18.518947,3.70943 -0.06268,0 -0.199092,-0.22357 -0.303112,-0.49682 z m 53.787109,-1.8772 c -0.85022,-1.69124 -0.89768,-1.92106 -0.3533,-1.71048 0.21491,0.0831 0.54862,-0.10367 0.74157,-0.41511 0.19295,-0.31144 0.5825,-0.55921 0.86566,-0.55062 0.43001,0.0131 0.40524,0.0927 -0.15032,0.48334 -0.75811,0.53306 -0.83548,1.3987 -0.22171,2.48095 0.50462,0.88981 0.54335,1.19197 0.15279,1.19197 -0.15986,0 -0.62547,-0.66602 -1.03469,-1.48005 z m 4.57723,1.00145 c 0,-0.0993 0.34631,-0.45519 0.76958,-0.7908 0.67297,-0.5336 0.74613,-0.75801 0.5828,-1.78763 -0.10273,-0.64758 -0.38253,-1.55898 -0.62177,-2.02532 -0.50427,-0.98295 -0.56638,-1.59051 -0.13513,-1.32185 0.58433,0.36402 1.4739,2.5217 1.4739,3.57495 0,0.73702 -0.22506,1.29525 -0.72562,1.79982 -0.68077,0.68622 -1.34376,0.95799 -1.34376,0.55083 z m -1.13886,-2.64572 c -0.51179,-0.58757 -0.93052,-1.28203 -0.93052,-1.54325 0,-0.29257 0.43919,0.0239 1.14377,0.82424 1.03332,1.17372 1.19363,1.25748 1.66004,0.86728 0.46354,-0.38777 0.50493,-0.37199 0.40524,0.15461 -0.19113,1.0097 -1.25883,0.86776 -2.27853,-0.30288 z m 14.04808,-5.4121 c 5.63535,-5.72326 9.66158,-11.7595 11.72274,-17.575 1.07461,-3.03197 1.44076,-5.43571 1.42421,-9.34964 -0.0116,-2.76144 -0.1611,-3.93594 -0.76951,-6.04822 -3.08031,-10.69419 -12.52423,-18.97017 -27.56916,-24.15968 -9.63241,-3.32254 -17.44402,-4.581568 -30.08863,-4.849498 -13.68235,-0.28991 -25.129745,1.06647 -38.283658,4.536178 -4.295088,1.13296 -15.343014,4.71167 -16.555096,5.36263 -0.406486,0.2183 -2.66803,1.27697 -5.025654,2.35259 -2.357623,1.07561 -5.616907,2.68925 -7.242854,3.58587 -3.654288,2.01513 -2.429151,0.92255 2.365014,-2.10912 4.614217,-2.91787 13.027267,-7.1558 18.476669,-9.30729 28.962049,-11.434632 63.183199,-12.929065 86.332269,-3.770128 8.64032,3.418548 16.07296,8.474248 19.97696,13.588378 0.71439,0.93584 1.29889,1.77992 1.29889,1.87574 0,0.0958 0.38945,0.71612 0.86544,1.37846 2.27952,3.17197 3.79809,9.39673 3.44887,14.13718 -0.46116,6.25972 -3.19976,12.9112 -7.76831,18.86759 -1.93696,2.52537 -7.85854,8.45633 -10.88389,10.90114 -4.77962,3.86243 -5.04028,3.95054 -1.7243,0.58282 z m -88.607638,2.52187 c -0.0099,-0.21575 -0.323387,-3.3424 -0.696667,-6.9481 -0.429188,-4.14577 -0.576904,-6.68716 -0.401816,-6.91308 0.53403,-0.68905 2.471572,-1.11021 5.159095,-1.12141 2.288517,-0.01 2.842816,0.0851 3.54752,0.60586 2.314556,1.71032 2.488285,5.6853 0.317243,7.25864 -1.011991,0.73339 -2.48254,1.18566 -4.548969,1.39906 l -1.903428,0.19658 0.08547,2.86308 0.08547,2.86307 -0.812973,0.0943 c -0.516457,0.0599 -0.81953,-0.0488 -0.83095,-0.298 z m 5.10409,-7.40702 c 2.360155,-0.66074 3.159193,-3.64232 1.440414,-5.37486 -0.763448,-0.76955 -1.071229,-0.87105 -2.641394,-0.87105 -0.977491,0 -2.130007,0.13519 -2.561146,0.30042 -0.703006,0.26942 -0.767263,0.41547 -0.622741,1.41546 0.08863,0.61327 0.246237,1.95315 0.350232,2.9775 l 0.189081,1.86245 1.375201,-0.002 c 0.75636,-8.4e-4 1.868019,-0.13963 2.470353,-0.30826 z m 8.660524,6.28604 C 91.810618,161.78484 91.1667,160.7486 91.1667,159.3965 c 0,-1.55849 0.820677,-2.57541 2.483757,-3.07766 1.583086,-0.4781 2.395616,-0.42886 3.661896,0.22188 l 1.097198,0.56387 v -0.96639 c 0,-1.34652 -0.551829,-2.80103 -1.194162,-3.14755 -0.724708,-0.39095 -2.675029,-0.3687 -4.321919,0.0493 -1.089254,0.27647 -1.390557,0.26427 -1.592133,-0.0645 -0.367164,-0.59884 0.158777,-1.06165 1.631158,-1.43536 1.830714,-0.46468 4.464588,-0.41188 5.464888,0.10954 1.147914,0.59836 1.678147,2.22759 2.078537,6.38664 0.26408,2.74307 0.25315,3.44783 -0.0566,3.64584 -0.6549,0.41875 -1.171483,0.28086 -1.336938,-0.35689 -0.156537,-0.60338 -0.16692,-0.60392 -0.785295,-0.0413 -1.202224,1.0939 -3.878241,1.57699 -5.356694,0.96703 z m 4.592617,-1.36267 c 1.635645,-0.85258 1.503752,-2.88972 -0.234488,-3.62181 -2.016497,-0.84929 -4.210315,0.18672 -4.210315,1.98827 0,1.86819 2.34283,2.72921 4.444803,1.63354 z m 6.777937,-0.0493 c -0.006,-0.2977 -0.25483,-2.61977 -0.55276,-5.16015 -0.29791,-2.54039 -0.45639,-4.7156 -0.35216,-4.83381 0.10423,-0.11821 0.51148,-0.25231 0.90502,-0.298 0.6262,-0.0727 0.74785,0.0768 0.97463,1.19736 l 0.25912,1.28042 0.64504,-0.95502 c 0.97278,-1.44032 2.07109,-2.12093 3.67292,-2.27608 1.21407,-0.11759 1.57446,-0.0273 2.24702,0.5631 0.90967,0.7985 1.18588,2.06501 1.53434,7.03548 l 0.21413,3.05442 h -0.88439 -0.88438 l -0.37036,-3.7994 c -0.43051,-4.41639 -0.74671,-5.14036 -2.24512,-5.14036 -1.48178,0 -2.62614,0.69548 -3.21998,1.95692 -0.41518,0.88192 -0.49309,1.72087 -0.4094,4.40851 l 0.10336,3.31931 -0.81297,0.0943 c -0.61987,0.0719 -0.81561,-0.0343 -0.82406,-0.44699 z m 14.04319,-1.66647 c -0.703,-0.60953 -0.8231,-1.02435 -1.18619,-4.09738 -0.22221,-1.88056 -0.40977,-3.65386 -0.4168,-3.94068 -0.009,-0.37791 -0.25699,-0.52149 -0.89968,-0.52149 -0.74892,0 -0.88688,-0.11588 -0.88688,-0.74498 0,-0.59598 0.14782,-0.74498 0.73907,-0.74498 0.67799,0 0.73907,-0.10996 0.73907,-1.33048 0,-1.03003 0.13489,-1.40325 0.59736,-1.65274 0.81602,-0.44021 1.17555,-0.139 1.18093,0.98936 0.008,1.50182 0.30328,1.73341 2.09065,1.63499 1.4322,-0.0789 1.60015,-0.0256 1.60015,0.50787 0,0.49699 -0.26101,0.62809 -1.57138,0.7893 -0.86426,0.10633 -1.62111,0.24346 -1.6819,0.30473 -0.27295,0.27514 0.56016,6.72502 0.94987,7.35378 0.4436,0.71573 0.39225,0.71054 2.89466,0.29268 1.0862,-0.18136 0.71827,0.99386 -0.44343,1.41647 -1.61505,0.58754 -2.829,0.50352 -3.7055,-0.25645 z m 7.12053,-1.46447 c -0.38553,-2.84536 -1.06009,-9.27021 -0.9816,-9.34933 0.0461,-0.0464 0.48191,-0.12816 0.96847,-0.18157 0.83121,-0.0912 0.89362,-0.0251 1.03249,1.09486 l 0.14782,1.19196 0.62371,-1.06369 c 1.19047,-2.03025 5.10219,-2.96911 4.37128,-1.04914 -0.10836,0.28462 -0.52784,0.47388 -1.05034,0.47388 -1.3612,0 -2.61125,0.81375 -3.11428,2.02732 -0.34415,0.83025 -0.42757,1.92032 -0.34625,4.52459 l 0.10713,3.43083 -0.79221,0.0923 c -0.72906,0.0849 -0.80609,-0.0101 -0.96622,-1.19197 z M 85.247901,137.72476 C 85.033437,137.13529 83.657878,123.68834 83.79,123.47285 c 0.06534,-0.10657 1.818342,-0.35141 3.895562,-0.54411 2.077221,-0.1927 4.079008,-0.41546 4.448414,-0.49503 0.7292,-0.15707 1.247342,0.58774 0.754474,1.08455 -0.153077,0.1543 -1.767124,0.43334 -3.58677,0.62009 l -3.308447,0.33954 0.0033,1.37132 c 0.0018,0.75423 0.08818,1.88954 0.191986,2.52291 l 0.188733,1.15159 2.09912,-0.19236 c 1.154517,-0.1058 2.675964,-0.2722 3.380994,-0.36979 1.220233,-0.1689 1.277099,-0.14338 1.182506,0.53073 -0.08894,0.63383 -0.301075,0.73233 -2.020939,0.93836 -4.871753,0.58359 -4.436201,0.42092 -4.41922,1.65052 0.0084,0.60456 0.122813,2.03788 0.254364,3.18515 0.25507,2.22451 0.06094,2.83093 -0.906275,2.83093 -0.310383,0 -0.625318,-0.16762 -0.699855,-0.37249 z m 12.861555,-1.78796 c -1.325049,-0.90766 -2.107805,-2.5563 -2.269271,-4.77949 -0.261429,-3.5998 1.613153,-5.60482 5.313695,-5.68342 3.30328,-0.0702 4.94432,1.63306 5.18566,5.38221 0.23981,3.72521 -1.68598,5.75118 -5.46678,5.75118 -1.363514,0 -2.015434,-0.15817 -2.763304,-0.67048 z m 5.530084,-1.5428 c 0.57229,-0.67065 0.68255,-1.13656 0.68255,-2.88399 0,-2.25206 -0.4509,-3.50087 -1.54222,-4.27138 -1.38076,-0.97487 -3.932633,-0.32945 -4.608385,1.16555 -0.835651,1.84872 -0.04768,5.84678 1.318605,6.69079 0.299977,0.1853 1.20275,0.28336 2.00615,0.2179 1.13223,-0.0922 1.61424,-0.29889 2.1433,-0.91887 z m 7.47749,0.0529 c -1.32505,-0.90767 -2.1078,-2.55631 -2.26926,-4.7795 -0.26144,-3.5998 1.61315,-5.60481 5.31368,-5.68341 3.30329,-0.0702 4.94432,1.63306 5.18567,5.3822 0.23981,3.72521 -1.68598,5.7512 -5.46678,5.7512 -1.36352,0 -2.01543,-0.15819 -2.76331,-0.67049 z m 5.53008,-1.5428 c 0.57229,-0.67065 0.68256,-1.13657 0.68256,-2.884 0,-2.25205 -0.4509,-3.50087 -1.54223,-4.27138 -1.38076,-0.97485 -3.93262,-0.32944 -4.60838,1.16555 -0.83565,1.84873 -0.0477,5.84679 1.31861,6.6908 0.29997,0.1853 1.20274,0.28335 2.00614,0.2179 1.13224,-0.0922 1.61425,-0.29889 2.1433,-0.91887 z m 8.52899,1.11465 c -1.09082,-0.30326 -1.96834,-1.07909 -2.60066,-2.2993 -0.85351,-1.64705 -0.92888,-5.60541 -0.13015,-6.83505 0.78414,-1.20718 2.22948,-1.9823 3.6987,-1.98358 1.49883,-0.002 2.30957,0.35724 3.26161,1.44242 l 0.6943,0.79141 -0.15693,-0.74498 c -0.17401,-0.82607 -0.61095,-5.72455 -0.53161,-5.95985 0.0996,-0.29544 1.51801,-0.53765 1.67254,-0.28561 0.23146,0.37751 1.59996,14.67614 1.43101,14.9517 -0.0788,0.12844 -0.45367,0.23352 -0.83316,0.23352 -0.7204,0 -1.04812,-0.4959 -1.04999,-1.58883 -8.4e-4,-0.55854 -0.0792,-0.51704 -0.57714,0.30618 -0.31682,0.52375 -0.8817,1.15393 -1.25531,1.40039 -0.76303,0.50338 -2.74429,0.81594 -3.62321,0.57158 z m 3.3622,-1.71916 c 1.7668,-0.92096 2.29957,-3.803 1.13378,-6.13333 -0.5249,-1.04923 -0.91699,-1.41737 -1.8594,-1.74582 -1.06026,-0.3695 -1.31271,-0.35954 -2.25015,0.0889 -1.30335,0.62343 -1.72908,1.51689 -1.72908,3.62885 0,3.68094 2.08637,5.52633 4.70485,4.16143 z m -69.293771,-8.53552 -2.270573,-3.60553 0.678678,-0.72819 c 0.373272,-0.40052 1.504008,-1.13776 2.512745,-1.63833 2.24395,-1.11354 3.398535,-0.99375 4.267501,0.44275 1.147064,1.89623 0.518382,3.36212 -2.093932,4.8824 l -1.473994,0.85781 0.892507,1.41859 c 0.881741,1.40149 0.926572,1.97602 0.15419,1.97602 -0.218102,0 -1.418307,-1.62248 -2.667122,-3.60552 z m 3.974167,-2.41077 c 0.331393,-0.35855 0.602533,-0.93658 0.602533,-1.28452 0,-0.92309 -1.067612,-1.93695 -2.039649,-1.93695 -0.654515,0 -2.433092,0.91163 -3.248785,1.6652 -0.06324,0.0584 0.325327,0.8385 0.863465,1.73353 l 0.978433,1.62732 1.120735,-0.57633 c 0.616404,-0.31698 1.391875,-0.86969 1.723268,-1.22825 z m 5.69832,1.47191 c -0.668621,-0.83606 -2.737538,-5.33523 -2.575158,-5.60007 0.461594,-0.75286 1.127649,-0.0711 2.373459,2.42927 1.240385,2.48951 1.468878,3.54329 0.768296,3.54329 -0.147789,0 -0.402758,-0.16762 -0.566597,-0.37249 z m 2.199233,-3.98187 c -0.760366,-1.54293 -1.382485,-2.92331 -1.382485,-3.0675 0,-0.53542 0.967062,-0.6273 1.330419,-0.12641 0.341203,0.47036 0.382477,0.46322 0.558774,-0.0967 0.275742,-0.87573 1.417118,-1.86266 2.524349,-2.18275 1.318302,-0.38111 2.021899,0.38503 3.101865,3.37758 0.694684,1.92494 0.77218,2.38581 0.436358,2.59501 -0.546447,0.34044 -0.646394,0.19853 -1.735587,-2.46424 -1.034366,-2.52874 -1.62904,-2.98508 -2.844141,-2.18255 -1.411854,0.93249 -1.52647,2.37067 -0.373821,4.69064 0.648974,1.30621 0.693704,1.9037 0.15803,2.1109 -0.259599,0.10041 -0.856521,-0.79273 -1.773761,-2.65399 z m 9.293864,-1.49597 c -0.867308,-0.61235 -1.792544,-2.63221 -1.801056,-3.93183 -0.01779,-2.71667 4.271962,-4.05073 5.719238,-1.77861 0.961432,1.50938 0.78981,1.81107 -1.488949,2.6173 -1.165555,0.41237 -2.21925,0.85062 -2.341543,0.9739 -0.340938,0.34366 1.083371,1.71173 1.782099,1.71173 0.339903,0 1.114424,-0.26819 1.721157,-0.59598 1.256694,-0.67893 1.799359,-0.75789 1.627014,-0.23672 -0.189773,0.57388 -2.597641,1.72669 -3.606519,1.72669 -0.50733,0 -1.232479,-0.21892 -1.611441,-0.48648 z m 1.640082,-3.59084 c 1.68857,-0.53653 1.838154,-0.77958 1.117821,-1.81622 -0.990853,-1.42597 -3.382944,-0.41929 -3.382944,1.42365 0,1.03786 0.151592,1.06413 2.265123,0.39257 z m -16.630736,2.54215 c -0.275656,-0.4496 0.78635,-1.24624 1.159683,-0.86992 0.376641,0.37965 0.02351,1.21311 -0.513987,1.21311 -0.239399,0 -0.529962,-0.15444 -0.645696,-0.34319 z m 26.084414,-1.68127 c -0.20186,-0.33935 -2.286896,-8.47656 -2.194794,-8.56556 0.04612,-0.0446 0.338041,-0.12731 0.648706,-0.18386 0.493185,-0.0898 0.668342,0.33193 1.380634,3.32408 1.215637,5.10656 1.237458,5.26959 0.731593,5.46526 -0.242516,0.0938 -0.497278,0.0759 -0.566139,-0.04 z m 2.638237,-0.62624 c -0.23536,-0.38388 0.06494,-0.50546 1.887764,-0.76443 1.507297,-0.21414 2.084057,-0.5957 2.084057,-1.37874 0,-0.7204 -0.871232,-1.16597 -2.279804,-1.16597 -1.60582,0 -2.450228,-0.67836 -2.450228,-1.96842 0,-0.93544 0.127007,-1.09875 1.256417,-1.61551 1.447858,-0.66246 3.889488,-0.80479 3.696572,-0.21547 -0.06704,0.20487 -0.776571,0.44193 -1.576682,0.5268 -1.733456,0.18386 -2.193801,0.43436 -2.193801,1.19376 0,0.73812 0.859584,1.18487 2.279804,1.18487 1.680192,0 2.503809,0.69717 2.39249,2.02518 -0.06964,0.83065 -0.291405,1.1921 -0.976962,1.59225 -1.132142,0.66083 -3.837716,1.04548 -4.119627,0.58568 z m 7.37883,-1.59569 c -0.1894,-0.57849 -1.36383,-8.64062 -1.27166,-8.72959 0.045,-0.0434 0.34737,-0.12528 0.67189,-0.18183 0.5428,-0.0946 0.62975,0.19534 1.08615,3.62207 0.64809,4.86604 0.6605,5.66184 0.0883,5.66184 -0.24899,0 -0.50759,-0.16761 -0.57467,-0.37249 z m 3.46631,-0.36872 c -0.82653,-0.6021 -0.90436,-2.22612 -0.14009,-2.92331 0.701,-0.63947 2.67922,-0.92832 3.68761,-0.53844 0.75434,0.29165 0.81297,0.26014 0.81297,-0.43683 0,-0.41313 -0.34202,-1.09591 -0.76005,-1.51729 -0.77305,-0.77924 -1.42036,-0.81792 -3.60044,-0.21515 -0.4816,0.13316 -0.66516,0.0568 -0.66516,-0.2767 0,-0.61861 2.99636,-1.25895 4.2267,-0.90327 1.46221,0.42271 1.94925,1.41867 2.01697,4.12455 l 0.0597,2.3832 -1.15617,0.23265 c -2.71082,0.54548 -3.80638,0.56273 -4.48197,0.0706 z m 3.70346,-0.61665 c 0.81405,-0.57474 0.86093,-1.78909 0.0852,-2.20756 -0.85128,-0.45923 -2.1188,-0.3735 -2.73071,0.18471 -1.63262,1.48932 0.78397,3.33714 2.64549,2.02285 z m 14.69931,0.77817 c -1.19073,-0.49125 -1.74227,-1.45887 -1.7584,-3.08487 -0.0199,-2.01384 0.55148,-3.34303 1.63101,-3.79377 1.06868,-0.44619 2.77641,-0.15217 3.53039,0.60785 0.55169,0.55609 0.56509,0.53481 0.76077,-1.20859 0.1617,-1.44068 0.29999,-1.77466 0.73481,-1.77466 0.29459,0 0.59748,0.1009 0.67309,0.22423 0.0756,0.12332 -0.11207,2.23534 -0.41709,4.69337 -0.30502,2.45803 -0.55858,4.50267 -0.56347,4.54364 -0.005,0.041 -0.21274,0.0745 -0.46187,0.0745 -0.24913,0 -0.57328,-0.30172 -0.72033,-0.67048 -0.14704,-0.36878 -0.27579,-0.5244 -0.2861,-0.34583 -0.0224,0.38716 -1.31746,1.02408 -2.02813,0.99741 -0.27689,-0.0104 -0.7695,-0.12866 -1.09468,-0.26281 z m 2.35176,-0.79738 c 0.71147,-0.2752 1.34357,-1.71313 1.34357,-3.05638 0,-0.9254 -0.17072,-1.3205 -0.77894,-1.80275 -1.72462,-1.36744 -3.35984,-0.19816 -3.35984,2.4025 0,2.0865 1.14669,3.09429 2.79521,2.45663 z m -12.64943,0.28444 c -0.10839,-0.10927 -0.19708,-1.65137 -0.19708,-3.42691 0,-3.02958 0.0364,-3.22825 0.59125,-3.22825 0.39708,0 0.59126,0.19867 0.59126,0.60491 V 106.23 l 0.82274,-0.61316 c 1.18273,-0.88143 2.83115,-1.08818 3.76393,-0.47212 0.73824,0.48759 0.75313,0.56604 0.67089,3.53598 -0.0724,2.61603 -0.15585,3.05116 -0.60144,3.13716 -0.46296,0.0893 -0.51735,-0.19379 -0.51735,-2.69334 0,-2.98425 -0.21047,-3.50835 -1.40888,-3.50835 -1.79213,0 -2.72989,1.53219 -2.72989,4.4603 0,1.29928 -0.10926,1.79753 -0.39417,1.79753 -0.2168,0 -0.48286,-0.0894 -0.59126,-0.19866 z"
       id="path1" /></g></svg>
