<svg width="32" height="32" viewBox="0 0 32 32" fill="none" xmlns="http://www.w3.org/2000/svg">
<!-- Background Circle for visibility on all tab themes -->
<circle cx="16" cy="16" r="15" fill="white" />

<!-- Stylized Pine Tree / Heart Hybrid -->

<path d="M16 4L24 18H8L16 4Z" fill="#2D5A27" />
<path d="M16 10L26 24H6L16 10Z" fill="#3D7A35" />

<!-- Trunk / Foundation -->

<rect x="14" y="24" width="4" height="4" rx="1" fill="#5D4037" />

<!-- Heart Symbol representing "Food/Care" at the center -->

<path d="M16 20C16 20 13 18 13 16.5C13 15.6716 13.6716 15 14.5 15C14.94 15 15.33 15.19 15.6 15.5C15.87 15.19 16.26 15 16.7 15C17.5284 15 18.2 15.6716 18.2 16.5C18.2 18 15.2 20 15.2 20" fill="#E53935" />

<!-- Abstract "Island" Water line -->

<path d="M4 28Q16 31 28 28" stroke="#1976D2" stroke-width="2" stroke-linecap="round" />
</svg>
